<svg width="137" height="24" viewBox="0 0 137 24" fill="none" xmlns="http://www.w3.org/2000/svg">
<path d="M19.328 23.624V0.215998H0.456V23.624H19.328ZM16.696 21.104H3.088V2.764H16.696V21.104ZM34.625 23.82V0.215998H22.193V2.764H31.909V23.82H34.625ZM43.529 23.596V20.348H39.665V23.596H43.529ZM63.6408 23.68V6.152H46.1688V8.504H61.0648V13.628H46.1688V23.68H63.6408ZM61.0648 21.328H48.8008V15.532H61.0648V21.328ZM82.7331 23.68V6.18H68.8171V0.187999H66.2691V23.68H82.7331ZM80.2411 21.272H68.8171V8.616H80.2411V21.272ZM101.986 23.68V6.18H85.3544V23.68H101.986ZM99.4664 21.272H87.9024V8.616H99.4664V21.272ZM120.396 23.68V6.152H117.876V21.272H107.18V6.152H104.632V23.68H120.396ZM136.222 8.644V6.208H128.69V2.82H126.142V6.208H122.278V8.644H126.142V23.68H135.774V21.272H128.69V8.644H136.222Z" fill="#262525"/>
</svg>
