<svg width="153" height="27" viewBox="0 0 153 27" fill="none" xmlns="http://www.w3.org/2000/svg">
<path d="M19.328 23.624V0.215998H0.456V23.624H19.328ZM16.696 21.104H3.088V2.764H16.696V21.104ZM41.009 23.624V21.104H24.741V13.04H40.981V0.215998H22.165V2.736H38.377V10.604H22.137V23.624H41.009ZM47.6305 23.596V20.348H43.7665V23.596H47.6305ZM68.9464 7.524V4.92L66.6784 6.208H50.3544V18.556H64.5504V24.38H52.9024V21.776H50.3824V26.76H67.0704V8.616L68.9464 7.524ZM64.5504 16.4H52.9024V8.532H64.5504V16.4ZM88.4963 23.68V6.152H71.0243V8.504H85.9203V13.628H71.0243V23.68H88.4963ZM85.9203 21.328H73.6563V15.532H85.9203V21.328ZM93.8966 23.764V0.0759985H91.3206V23.764H93.8966ZM99.5568 23.764V0.0759985H96.9808V23.764H99.5568ZM119.693 23.68V21.3H104.965V16.092H119.693V6.152H102.417V23.68H119.693ZM117.145 14.188H104.965V8.476H117.145V14.188ZM134.198 8.616V6.18H126.162L122.242 9.344V23.764H124.79V10.24L126.862 8.616H134.198ZM152.404 26.76V6.124H149.856V17.324H138.488V6.124H135.968V19.592H149.856V24.352H136.78V26.76H152.404Z" fill="white"/>
</svg>
