<svg width="175" height="24" viewBox="0 0 175 24" fill="none" xmlns="http://www.w3.org/2000/svg">
<path d="M19.328 23.624V0.215998H0.456V23.624H19.328ZM16.696 21.104H3.088V2.764H16.696V21.104ZM41.233 23.624V0.215998H22.081V2.736H38.629V10.492H24.461V12.956H38.629V21.104H22.081V23.624H41.233ZM47.9587 23.596V20.348H44.0947V23.596H47.9587ZM67.1745 23.68V21.272H53.2305V8.616H67.1745V6.18H50.6825V23.68H67.1745ZM85.963 23.68V6.18H69.331V23.68H85.963ZM83.443 21.272H71.879V8.616H83.443V21.272ZM104.82 23.764V6.18H88.6083V23.764H91.1563V8.616H102.3V23.764H104.82ZM120.636 8.644V6.208H113.104V2.82H110.556V6.208H106.692V8.644H110.556V23.68H120.188V21.272H113.104V8.644H120.636ZM139.957 23.68V6.152H122.485V8.504H137.381V13.628H122.485V23.68H139.957ZM137.381 21.328H125.117V15.532H137.381V21.328ZM159.05 23.68V21.272H145.106V8.616H159.05V6.18H142.558V23.68H159.05ZM174.394 8.644V6.208H166.862V2.82H164.314V6.208H160.45V8.644H164.314V23.68H173.946V21.272H166.862V8.644H174.394Z" fill="#262525"/>
</svg>
