<svg width="86" height="36" viewBox="0 0 86 36" fill="none" xmlns="http://www.w3.org/2000/svg">
<path d="M26.108 30.98V18.02L22.976 15.392L26.108 12.764V0.955998H0.872V30.98H26.108ZM22.616 12.116L20.348 13.88H4.256V4.16H22.616V12.116ZM22.616 27.848H4.256V16.868H20.312L22.616 18.74V27.848ZM33.2599 31.268V0.811998H29.9479V31.268H33.2599ZM58.3213 31.16V8.66H36.9373V31.16H58.3213ZM55.0813 28.064H40.2133V11.792H55.0813V28.064ZM85.6264 10.388V7.04L82.7104 8.696H61.7224V24.572H79.9744V32.06H64.9984V28.712H61.7584V35.12H83.2144V11.792L85.6264 10.388ZM79.9744 21.8H64.9984V11.684H79.9744V21.8Z" fill="black"/>
</svg>
