<svg width="59" height="59" viewBox="0 0 59 59" fill="none" xmlns="http://www.w3.org/2000/svg">
<mask id="mask0" mask-type="alpha" maskUnits="userSpaceOnUse" x="0" y="0" width="59" height="59">
<path d="M29.5 59C45.6455 59 58.7341 45.7962 58.7341 29.5107C58.7341 13.2252 45.6455 0.0213013 29.5 0.0213013C13.3546 0.0213013 0.265991 13.2252 0.265991 29.5107C0.265991 45.7962 13.3546 59 29.5 59Z" fill="#B8C5D0"/>
</mask>
<g mask="url(#mask0)">
<path d="M29.4742 57.6111C46.5553 57.6111 60.4023 44.4191 60.4023 28.146C60.4023 11.8728 46.5553 -1.31915 29.4742 -1.31915C12.393 -1.31915 -1.45398 11.8728 -1.45398 28.146C-1.45398 44.4191 12.393 57.6111 29.4742 57.6111Z" fill="white"/>
<path d="M29.4742 -1.31915C12.3937 -1.31915 -1.45398 11.8735 -1.45398 28.146C-1.45398 40.6353 6.69171 51.3058 18.1975 55.5982C17.9175 53.2701 17.6884 49.681 18.2993 47.1346C18.8593 44.8307 21.914 32.4869 21.914 32.4869C21.914 32.4869 20.9976 30.7166 20.9976 28.1217C20.9976 24.0233 23.4922 20.9676 26.5977 20.9676C29.2451 20.9676 30.5178 22.8592 30.5178 25.1146C30.5178 27.6367 28.8378 31.4199 27.9469 34.9363C27.2087 37.8707 29.4996 40.2715 32.5288 40.2715C38.0272 40.2715 42.2527 34.7423 42.2527 26.7879C42.2527 19.7308 36.9326 14.8078 29.3215 14.8078C20.5139 14.8078 15.3465 21.0889 15.3465 27.5882C15.3465 30.1103 16.3647 32.8264 17.6375 34.3057C17.892 34.5968 17.9175 34.8635 17.8411 35.1545C17.612 36.0761 17.0775 38.0889 16.9756 38.5012C16.8484 39.0347 16.5174 39.156 15.932 38.8892C12.0628 37.1674 9.64452 31.8079 9.64452 27.4669C9.64452 18.1787 16.7211 9.64235 30.0851 9.64235C40.8018 9.64235 49.1511 16.9177 49.1511 26.6666C49.1511 36.8279 42.4309 45.0005 33.1143 45.0005C29.9833 45.0005 27.0305 43.4484 26.0377 41.6053C26.0377 41.6053 24.4849 47.2316 24.1031 48.6139C23.4158 51.1845 21.5321 54.3857 20.2594 56.35C23.1613 57.1988 26.2159 57.6596 29.4233 57.6596C46.5038 57.6596 60.3514 44.467 60.3514 28.1945C60.4023 11.8735 46.5547 -1.31915 29.4742 -1.31915Z" fill="#E60019"/>
</g>
</svg>
