<svg width="59" height="59" viewBox="0 0 59 59" fill="none" xmlns="http://www.w3.org/2000/svg">
<mask id="mask0" mask-type="alpha" maskUnits="userSpaceOnUse" x="0" y="0" width="59" height="59">
<path d="M29.234 59C45.3795 59 58.4681 45.7962 58.4681 29.5107C58.4681 13.2252 45.3795 0.0213013 29.234 0.0213013C13.0886 0.0213013 0 13.2252 0 29.5107C0 45.7962 13.0886 59 29.234 59Z" fill="#B8C5D0"/>
</mask>
<g mask="url(#mask0)">
<path d="M59.2242 0.0213013H-1.31604V59H59.2242V0.0213013Z" fill="#1DA1F2"/>
<path d="M21.9313 44.4913C36.2037 44.4913 44.0134 32.9609 44.0134 22.9788C44.0134 22.6544 44.0134 22.33 43.9982 22.0056C45.5117 20.944 46.8285 19.6023 47.8728 18.0836C46.4804 18.6881 44.982 19.0862 43.408 19.2779C45.0123 18.349 46.2382 16.8597 46.8285 15.0904C45.3301 15.9603 43.6653 16.5796 41.8945 16.9187C40.4718 15.4443 38.4588 14.5301 36.2339 14.5301C31.9507 14.5301 28.4697 17.9214 28.4697 22.0941C28.4697 22.6839 28.5453 23.2589 28.6664 23.8192C22.2189 23.5096 16.4978 20.4869 12.6687 15.9161C12.0027 17.0367 11.6243 18.3342 11.6243 19.7202C11.6243 22.3448 13.0016 24.6597 15.0751 26.0162C13.8038 25.972 12.6081 25.6328 11.5638 25.0725C11.5638 25.102 11.5638 25.1315 11.5638 25.1758C11.5638 28.8324 14.2427 31.8993 17.7843 32.5923C17.1335 32.7693 16.4524 32.8577 15.7411 32.8577C15.2416 32.8577 14.7573 32.8135 14.2881 32.725C15.2719 35.7329 18.1476 37.9152 21.5378 37.9741C18.874 40.0089 15.5292 41.218 11.8968 41.218C11.2762 41.218 10.6557 41.1885 10.0503 41.1148C13.4708 43.238 17.5573 44.4913 21.9313 44.4913Z" fill="white"/>
</g>
</svg>
