<svg width="59" height="59" viewBox="0 0 59 59" fill="none" xmlns="http://www.w3.org/2000/svg">
<mask id="mask0" mask-type="alpha" maskUnits="userSpaceOnUse" x="0" y="0" width="59" height="59">
<path d="M58.5001 29.4894C58.5001 45.5028 45.6303 58.4787 29.766 58.4787C13.9008 58.4787 1.03198 45.5028 1.03198 29.4894C1.03198 13.4759 13.9008 0.5 29.766 0.5C45.6303 0.5 58.5001 13.4759 58.5001 29.4894Z" fill="#B8C5D0" stroke="black"/>
</mask>
<g mask="url(#mask0)">
<path d="M62.9484 -5.36169H-5.4884V64.3404H62.9484V-5.36169Z" fill="white"/>
<path fill-rule="evenodd" clip-rule="evenodd" d="M25.3747 24.2089V21.7034C25.3747 21.2468 25.3979 21.0945 25.4669 20.8602C25.6514 20.2163 26.2742 19.7364 27.012 19.7364C27.7499 19.7364 28.3725 20.228 28.557 20.8602C28.6262 21.0945 28.6494 21.2468 28.6494 21.7034V25.567C28.6494 25.8012 28.6494 26.0353 28.6032 26.2462C28.4764 26.8315 27.9576 27.3586 27.381 27.4873C27.1735 27.534 26.9428 27.534 26.7121 27.534H22.9072C22.4575 27.534 22.3076 27.5106 22.0769 27.4403C21.4543 27.253 20.9701 26.6208 20.9701 25.8715C20.9701 25.1221 21.4543 24.4899 22.0769 24.3026C22.3076 24.2323 22.4575 24.2089 22.9072 24.2089H25.3747ZM38.9344 41.7248H18.5257V23.4713C18.5257 23.2371 18.6064 23.0381 18.7679 22.8742L24.0602 17.4999C24.2217 17.3362 24.4176 17.2542 24.6483 17.2542H38.9344V41.7248ZM41.2521 13.1327C41.1484 13.1211 41.0099 13.1094 40.7447 13.1094H24.1062C23.922 13.1094 23.7375 13.1211 23.6105 13.1327C22.8495 13.203 22.1691 13.566 21.6273 14.1162L15.4354 20.4037C14.8937 20.9541 14.5361 21.6447 14.4671 22.4176C14.4554 22.5463 14.4438 22.7336 14.4438 22.9209V43.5628C14.4438 43.8321 14.4554 43.9727 14.4671 44.078C14.5591 44.9562 15.3432 45.7522 16.208 45.8458C16.3119 45.8577 16.4501 45.8694 16.7153 45.8694H40.7447C41.0099 45.8694 41.1484 45.8577 41.2521 45.8458C42.1169 45.7522 42.901 44.9562 42.9932 44.078C43.0045 43.9727 43.0162 43.8321 43.0162 43.5628V15.4159C43.0162 15.1466 43.0045 15.0061 42.9932 14.9007C42.901 14.0226 42.1169 13.2264 41.2521 13.1327Z" fill="#41C9B4"/>
<path d="M58.0001 29.4894C58.0001 45.2308 45.3501 57.9787 29.766 57.9787C14.181 57.9787 1.53198 45.2308 1.53198 29.4894C1.53198 13.7479 14.181 1 29.766 1C45.3501 1 58.0001 13.7479 58.0001 29.4894Z" stroke="#41C9B4" stroke-width="2"/>
</g>
</svg>
