<svg width="282" height="24" viewBox="0 0 282 24" fill="none" xmlns="http://www.w3.org/2000/svg">
<path d="M14.956 20.368L6.82 11.92L14.572 5.368H11.716L5.164 10.888H2.788V0.256H0.604V20.488H2.788V13H5.116L12.196 20.368H14.956ZM30.3113 20.44V5.416H28.1513V18.376H18.9833V5.416H16.7993V20.44H30.3113ZM51.8208 20.512V5.44H32.5728V20.512H34.7568V7.504H41.2128V20.512H43.1808V7.504H49.6368V20.512H51.8208ZM68.3361 20.44V5.416H53.3601V7.432H66.1281V11.824H53.3601V20.44H68.3361ZM66.1281 18.424H55.6161V13.456H66.1281V18.424ZM81.8689 7.552V5.464H75.4129V2.56H73.2289V5.464H69.9169V7.552H73.2289V20.44H81.4849V18.376H75.4129V7.552H81.8689ZM97.7819 20.44V5.44H83.5259V20.44H97.7819ZM95.6219 18.376H85.7099V7.528H95.6219V18.376ZM111.353 7.552V5.464H104.897V2.56H102.713V5.464H99.4013V7.552H102.713V20.44H110.969V18.376H104.897V7.552H111.353ZM115.41 2.824V0.207999H113.202V2.824H115.41ZM115.41 20.464V5.344H113.202V20.464H115.41ZM134.182 20.392V0.327999H118.006V20.392H134.182ZM131.926 18.232H120.262V2.512H131.926V18.232ZM156.342 15.904V0.303999H136.806V20.392H151.158V18.88H138.39V1.84H154.71V14.536H150.726L152.166 4.36H150.39L150.246 5.272H141.99L140.43 15.808H147.606L147.87 14.176H142.47L143.55 6.928H150.006L148.758 15.904H156.342ZM174.743 6.592V4.36L172.799 5.464H158.807V16.048H170.975V21.04H160.991V18.808H158.831V23.08H173.135V7.528L174.743 6.592ZM170.975 14.2H160.991V7.456H170.975V14.2ZM195.844 20.512V5.44H176.596V20.512H178.78V7.504H185.236V20.512H187.204V7.504H193.66V20.512H195.844ZM212.36 20.44V5.416H197.384V7.432H210.152V11.824H197.384V20.44H212.36ZM210.152 18.424H199.64V13.456H210.152V18.424ZM216.988 2.824V0.207999H214.78V2.824H216.988ZM216.988 20.464V5.344H214.78V20.464H216.988ZM221.84 20.512V0.207999H219.632V20.512H221.84ZM227.676 20.368V17.584H224.364V20.368H227.676ZM244.146 20.44V18.376H232.194V7.528H244.146V5.44H230.01V20.44H244.146ZM260.251 20.44V5.44H245.995V20.44H260.251ZM258.091 18.376H248.179V7.528H258.091V18.376ZM281.766 20.512V5.44H262.518V20.512H264.702V7.504H271.158V20.512H273.126V7.504H279.582V20.512H281.766Z" fill="black"/>
</svg>
