<svg width="283" height="25" viewBox="0 0 283 25" fill="none" xmlns="http://www.w3.org/2000/svg">
<mask id="path-1-outside-1" maskUnits="userSpaceOnUse" x="-1" y="0.583984" width="284" height="25" fill="black">
<rect fill="white" x="-1" y="0.583984" width="284" height="25"/>
<path d="M14.352 21.744L6.216 13.296L13.968 6.74399H11.112L4.56 12.264H2.184V1.63199H0V21.864H2.184V14.376H4.512L11.592 21.744H14.352Z"/>
<path d="M29.7073 21.816V6.79198H27.5473V19.752H18.3793V6.79198H16.1953V21.816H29.7073Z"/>
<path d="M51.2168 21.888V6.81599H31.9688V21.888H34.1528V8.87998H40.6087V21.888H42.5768V8.87998H49.0327V21.888H51.2168Z"/>
<path d="M67.7321 21.816V6.79198H52.7561V8.80799H65.5241V13.2H52.7561V21.816H67.7321ZM65.5241 19.8H55.0121V14.832H65.5241V19.8Z"/>
<path d="M81.2649 8.92799V6.83999H74.8089V3.93598H72.6249V6.83999H69.3129V8.92799H72.6249V21.816H80.8809V19.752H74.8089V8.92799H81.2649Z"/>
<path d="M97.1779 21.816V6.81599H82.9219V21.816H97.1779ZM95.0179 19.752H85.1059V8.90399H95.0179V19.752Z"/>
<path d="M110.749 8.92799V6.83999H104.293V3.93598H102.109V6.83999H98.7973V8.92799H102.109V21.816H110.365V19.752H104.293V8.92799H110.749Z"/>
<path d="M114.806 4.19999V1.58398H112.598V4.19999H114.806ZM114.806 21.84V6.71999H112.598V21.84H114.806Z"/>
<path d="M133.578 21.768V1.70398H117.402V21.768H133.578ZM131.322 19.608H119.658V3.88798H131.322V19.608Z"/>
<path d="M155.738 17.28V1.67998H136.202V21.768H150.553V20.256H137.786V3.21598H154.105V15.912H150.122L151.561 5.73599H149.786L149.641 6.64798H141.385L139.826 17.184H147.001L147.266 15.552H141.865L142.945 8.30399H149.402L148.154 17.28H155.738Z"/>
<path d="M174.139 7.96799V5.73599L172.195 6.83999H158.203V17.424H170.371V22.416H160.387V20.184H158.227V24.456H172.531V8.90399L174.139 7.96799ZM170.371 15.576H160.387V8.83198H170.371V15.576Z"/>
<path d="M195.24 21.888V6.81599H175.992V21.888H178.176V8.87998H184.632V21.888H186.6V8.87998H193.056V21.888H195.24Z"/>
<path d="M211.756 21.816V6.79198H196.78V8.80799H209.548V13.2H196.78V21.816H211.756ZM209.548 19.8H199.036V14.832H209.548V19.8Z"/>
<path d="M216.384 4.19999V1.58398H214.176V4.19999H216.384ZM216.384 21.84V6.71999H214.176V21.84H216.384Z"/>
<path d="M221.236 21.888V1.58398H219.028V21.888H221.236Z"/>
<path d="M227.072 21.744V18.96H223.76V21.744H227.072Z"/>
<path d="M243.542 21.816V19.752H231.59V8.90399H243.542V6.81599H229.406V21.816H243.542Z"/>
<path d="M259.647 21.816V6.81599H245.391V21.816H259.647ZM257.487 19.752H247.575V8.90399H257.487V19.752Z"/>
<path d="M281.162 21.888V6.81599H261.914V21.888H264.098V8.87998H270.554V21.888H272.522V8.87998H278.978V21.888H281.162Z"/>
</mask>
<path d="M14.352 21.744L6.216 13.296L13.968 6.74399H11.112L4.56 12.264H2.184V1.63199H0V21.864H2.184V14.376H4.512L11.592 21.744H14.352Z" fill="black"/>
<path d="M29.7073 21.816V6.79198H27.5473V19.752H18.3793V6.79198H16.1953V21.816H29.7073Z" fill="black"/>
<path d="M51.2168 21.888V6.81599H31.9688V21.888H34.1528V8.87998H40.6087V21.888H42.5768V8.87998H49.0327V21.888H51.2168Z" fill="black"/>
<path d="M67.7321 21.816V6.79198H52.7561V8.80799H65.5241V13.2H52.7561V21.816H67.7321ZM65.5241 19.8H55.0121V14.832H65.5241V19.8Z" fill="black"/>
<path d="M81.2649 8.92799V6.83999H74.8089V3.93598H72.6249V6.83999H69.3129V8.92799H72.6249V21.816H80.8809V19.752H74.8089V8.92799H81.2649Z" fill="black"/>
<path d="M97.1779 21.816V6.81599H82.9219V21.816H97.1779ZM95.0179 19.752H85.1059V8.90399H95.0179V19.752Z" fill="black"/>
<path d="M110.749 8.92799V6.83999H104.293V3.93598H102.109V6.83999H98.7973V8.92799H102.109V21.816H110.365V19.752H104.293V8.92799H110.749Z" fill="black"/>
<path d="M114.806 4.19999V1.58398H112.598V4.19999H114.806ZM114.806 21.84V6.71999H112.598V21.84H114.806Z" fill="black"/>
<path d="M133.578 21.768V1.70398H117.402V21.768H133.578ZM131.322 19.608H119.658V3.88798H131.322V19.608Z" fill="black"/>
<path d="M155.738 17.28V1.67998H136.202V21.768H150.553V20.256H137.786V3.21598H154.105V15.912H150.122L151.561 5.73599H149.786L149.641 6.64798H141.385L139.826 17.184H147.001L147.266 15.552H141.865L142.945 8.30399H149.402L148.154 17.28H155.738Z" fill="black"/>
<path d="M174.139 7.96799V5.73599L172.195 6.83999H158.203V17.424H170.371V22.416H160.387V20.184H158.227V24.456H172.531V8.90399L174.139 7.96799ZM170.371 15.576H160.387V8.83198H170.371V15.576Z" fill="black"/>
<path d="M195.24 21.888V6.81599H175.992V21.888H178.176V8.87998H184.632V21.888H186.6V8.87998H193.056V21.888H195.24Z" fill="black"/>
<path d="M211.756 21.816V6.79198H196.78V8.80799H209.548V13.2H196.78V21.816H211.756ZM209.548 19.8H199.036V14.832H209.548V19.8Z" fill="black"/>
<path d="M216.384 4.19999V1.58398H214.176V4.19999H216.384ZM216.384 21.84V6.71999H214.176V21.84H216.384Z" fill="black"/>
<path d="M221.236 21.888V1.58398H219.028V21.888H221.236Z" fill="black"/>
<path d="M227.072 21.744V18.96H223.76V21.744H227.072Z" fill="black"/>
<path d="M243.542 21.816V19.752H231.59V8.90399H243.542V6.81599H229.406V21.816H243.542Z" fill="black"/>
<path d="M259.647 21.816V6.81599H245.391V21.816H259.647ZM257.487 19.752H247.575V8.90399H257.487V19.752Z" fill="black"/>
<path d="M281.162 21.888V6.81599H261.914V21.888H264.098V8.87998H270.554V21.888H272.522V8.87998H278.978V21.888H281.162Z" fill="black"/>
<path d="M14.352 21.744L6.216 13.296L13.968 6.74399H11.112L4.56 12.264H2.184V1.63199H0V21.864H2.184V14.376H4.512L11.592 21.744H14.352Z" stroke="white" stroke-width="2" mask="url(#path-1-outside-1)"/>
<path d="M29.7073 21.816V6.79198H27.5473V19.752H18.3793V6.79198H16.1953V21.816H29.7073Z" stroke="white" stroke-width="2" mask="url(#path-1-outside-1)"/>
<path d="M51.2168 21.888V6.81599H31.9688V21.888H34.1528V8.87998H40.6087V21.888H42.5768V8.87998H49.0327V21.888H51.2168Z" stroke="white" stroke-width="2" mask="url(#path-1-outside-1)"/>
<path d="M67.7321 21.816V6.79198H52.7561V8.80799H65.5241V13.2H52.7561V21.816H67.7321ZM65.5241 19.8H55.0121V14.832H65.5241V19.8Z" stroke="white" stroke-width="2" mask="url(#path-1-outside-1)"/>
<path d="M81.2649 8.92799V6.83999H74.8089V3.93598H72.6249V6.83999H69.3129V8.92799H72.6249V21.816H80.8809V19.752H74.8089V8.92799H81.2649Z" stroke="white" stroke-width="2" mask="url(#path-1-outside-1)"/>
<path d="M97.1779 21.816V6.81599H82.9219V21.816H97.1779ZM95.0179 19.752H85.1059V8.90399H95.0179V19.752Z" stroke="white" stroke-width="2" mask="url(#path-1-outside-1)"/>
<path d="M110.749 8.92799V6.83999H104.293V3.93598H102.109V6.83999H98.7973V8.92799H102.109V21.816H110.365V19.752H104.293V8.92799H110.749Z" stroke="white" stroke-width="2" mask="url(#path-1-outside-1)"/>
<path d="M114.806 4.19999V1.58398H112.598V4.19999H114.806ZM114.806 21.84V6.71999H112.598V21.84H114.806Z" stroke="white" stroke-width="2" mask="url(#path-1-outside-1)"/>
<path d="M133.578 21.768V1.70398H117.402V21.768H133.578ZM131.322 19.608H119.658V3.88798H131.322V19.608Z" stroke="white" stroke-width="2" mask="url(#path-1-outside-1)"/>
<path d="M155.738 17.28V1.67998H136.202V21.768H150.553V20.256H137.786V3.21598H154.105V15.912H150.122L151.561 5.73599H149.786L149.641 6.64798H141.385L139.826 17.184H147.001L147.266 15.552H141.865L142.945 8.30399H149.402L148.154 17.28H155.738Z" stroke="white" stroke-width="2" mask="url(#path-1-outside-1)"/>
<path d="M174.139 7.96799V5.73599L172.195 6.83999H158.203V17.424H170.371V22.416H160.387V20.184H158.227V24.456H172.531V8.90399L174.139 7.96799ZM170.371 15.576H160.387V8.83198H170.371V15.576Z" stroke="white" stroke-width="2" mask="url(#path-1-outside-1)"/>
<path d="M195.24 21.888V6.81599H175.992V21.888H178.176V8.87998H184.632V21.888H186.6V8.87998H193.056V21.888H195.24Z" stroke="white" stroke-width="2" mask="url(#path-1-outside-1)"/>
<path d="M211.756 21.816V6.79198H196.78V8.80799H209.548V13.2H196.78V21.816H211.756ZM209.548 19.8H199.036V14.832H209.548V19.8Z" stroke="white" stroke-width="2" mask="url(#path-1-outside-1)"/>
<path d="M216.384 4.19999V1.58398H214.176V4.19999H216.384ZM216.384 21.84V6.71999H214.176V21.84H216.384Z" stroke="white" stroke-width="2" mask="url(#path-1-outside-1)"/>
<path d="M221.236 21.888V1.58398H219.028V21.888H221.236Z" stroke="white" stroke-width="2" mask="url(#path-1-outside-1)"/>
<path d="M227.072 21.744V18.96H223.76V21.744H227.072Z" stroke="white" stroke-width="2" mask="url(#path-1-outside-1)"/>
<path d="M243.542 21.816V19.752H231.59V8.90399H243.542V6.81599H229.406V21.816H243.542Z" stroke="white" stroke-width="2" mask="url(#path-1-outside-1)"/>
<path d="M259.647 21.816V6.81599H245.391V21.816H259.647ZM257.487 19.752H247.575V8.90399H257.487V19.752Z" stroke="white" stroke-width="2" mask="url(#path-1-outside-1)"/>
<path d="M281.162 21.888V6.81599H261.914V21.888H264.098V8.87998H270.554V21.888H272.522V8.87998H278.978V21.888H281.162Z" stroke="white" stroke-width="2" mask="url(#path-1-outside-1)"/>
</svg>
