<svg width="94" height="94" viewBox="0 0 94 94" fill="none" xmlns="http://www.w3.org/2000/svg">
<path fill-rule="evenodd" clip-rule="evenodd" d="M42.3914 39.8787V36.4997C42.3914 35.884 42.4232 35.6786 42.518 35.3627C42.7714 34.4943 43.6269 33.8471 44.6403 33.8471C45.6538 33.8471 46.509 34.5101 46.7624 35.3627C46.8574 35.6786 46.8893 35.884 46.8893 36.4997V41.7102C46.8893 42.0261 46.8893 42.3417 46.8258 42.6261C46.6518 43.4155 45.9391 44.1263 45.1471 44.2999C44.8621 44.3629 44.5453 44.3629 44.2284 44.3629H39.0022C38.3846 44.3629 38.1786 44.3314 37.8618 44.2366C37.0066 43.984 36.3416 43.1313 36.3416 42.1209C36.3416 41.1102 37.0066 40.2576 37.8618 40.005C38.1786 39.9102 38.3846 39.8787 39.0022 39.8787H42.3914ZM61.0161 63.5005H32.9841V38.884C32.9841 38.5681 33.095 38.2998 33.3167 38.0787L40.5859 30.831C40.8077 30.6102 41.0768 30.4996 41.3937 30.4996H61.0161V63.5005ZM64.1995 24.9414C64.057 24.9257 63.8669 24.9099 63.5026 24.9099H40.6491C40.396 24.9099 40.1427 24.9257 39.9683 24.9414C38.9229 25.0362 37.9885 25.5257 37.2442 26.2677L28.7395 34.7469C27.9955 35.4893 27.5042 36.4207 27.4094 37.4629C27.3934 37.6365 27.3776 37.8891 27.3776 38.1417V65.9793C27.3776 66.3425 27.3934 66.5321 27.4094 66.6741C27.5358 67.8584 28.6128 68.9318 29.8006 69.0581C29.9434 69.0742 30.1333 69.0899 30.4975 69.0899H63.5026C63.8669 69.0899 64.057 69.0742 64.1995 69.0581C65.3873 68.9318 66.4643 67.8584 66.591 66.6741C66.6065 66.5321 66.6226 66.3425 66.6226 65.9793V28.0205C66.6226 27.6574 66.6065 27.4678 66.591 27.3257C66.4643 26.1414 65.3873 25.0677 64.1995 24.9414Z" fill="white"/>
</svg>
