<svg width="266" height="25" viewBox="0 0 266 25" fill="none" xmlns="http://www.w3.org/2000/svg">
<path d="M13.442 9.598V7.336H6.448V4.19H4.082V7.336H0.494V9.598H4.082V23.56H13.026V21.324H6.448V9.598H13.442ZM30.681 23.56V7.31H15.237V23.56H30.681ZM28.341 21.324H17.603V9.572H28.341V21.324ZM45.3834 9.598V7.336H38.3894V4.19H36.0234V7.336H32.4354V9.598H36.0234V23.56H44.9674V21.324H38.3894V9.598H45.3834ZM49.7784 4.476V1.642H47.3864V4.476H49.7784ZM49.7784 23.586V7.206H47.3864V23.586H49.7784ZM67.9823 23.482L59.1683 14.33L67.5663 7.232H64.4723L57.3743 13.212H54.8003V1.694H52.4343V23.612H54.8003V15.5H57.3223L64.9923 23.482H67.9823ZM84.6172 23.56V7.284H82.2772V21.324H72.3452V7.284H69.9792V23.56H84.6172ZM107.919 23.638V7.31H87.0671V23.638H89.4331V9.546H96.4271V23.638H98.5591V9.546H105.553V23.638H107.919ZM125.811 23.56V7.284H109.587V9.468H123.419V14.226H109.587V23.56H125.811ZM123.419 21.376H112.031V15.994H123.419V21.376ZM151.235 0.497999H148.635L146.061 5.048L144.657 12.198L146.061 19.348L148.635 23.794H151.209L148.427 18.984L147.075 12.172L148.427 5.36L151.235 0.497999ZM177.209 23.482V21.246H157.969V9.338H177.001V4.476H174.687V7.05H163.871V1.018H161.427V7.05H155.551V23.482H177.209ZM203.443 5.594V3.306H185.035V1.018H182.695V3.306H180.485V5.594H182.695V13.264H200.141V21.142H182.773V23.456H202.533V11.054H185.035V5.594H203.443ZM228.117 24.21V20.206H210.047V5.75H228.039V0.966H225.699V3.436H207.707V22.468H225.803V24.21H228.117ZM255.469 17.06V14.772H252.401V11.054H255.469V9.026H252.401V5.048H255.469V2.864H252.401V1.018H250.061V2.864H232.849V5.048H250.061V9.026H232.849V11.054H250.061V14.564H234.123V23.456H252.687V17.06H255.469ZM250.269 21.454H236.567V16.41H250.269V21.454ZM265.349 12.198L263.945 5.048L261.371 0.497999H258.771L261.579 5.36L262.931 12.172L261.579 18.984L258.797 23.794H261.371L263.945 19.348L265.349 12.198Z" fill="black"/>
</svg>
