<svg width="274" height="30" viewBox="0 0 274 30" fill="none" xmlns="http://www.w3.org/2000/svg">
<path d="M15.51 11.69V9.08H7.44V5.45H4.71V9.08H0.57V11.69H4.71V27.8H15.03V25.22H7.44V11.69H15.51ZM35.4012 27.8V9.05H17.5812V27.8H35.4012ZM32.7012 25.22H20.3112V11.66H32.7012V25.22ZM52.3655 11.69V9.08H44.2955V5.45H41.5655V9.08H37.4255V11.69H41.5655V27.8H51.8855V25.22H44.2955V11.69H52.3655ZM57.4366 5.78V2.51H54.6766V5.78H57.4366ZM57.4366 27.83V8.93H54.6766V27.83H57.4366ZM78.4411 27.71L68.2711 17.15L77.9611 8.96H74.3911L66.2011 15.86H63.2311V2.57H60.5011V27.86H63.2311V18.5H66.1411L74.9911 27.71H78.4411ZM97.6352 27.8V9.02H94.9352V25.22H83.4752V9.02H80.7452V27.8H97.6352ZM124.522 27.89V9.05H100.462V27.89H103.192V11.63H111.262V27.89H113.722V11.63H121.792V27.89H124.522ZM145.166 27.8V9.02H126.446V11.54H142.406V17.03H126.446V27.8H145.166ZM142.406 25.28H129.266V19.07H142.406V25.28ZM152.542 4.4V0.919999H148.672V4.43H150.772L149.512 7.25H151.402L152.542 4.4ZM195.382 27.8V17.21H180.502V11.6H195.262V9.05H177.832V19.19H192.682V25.28H177.832V27.8H195.382ZM211.64 29.6V28.37H196.67V29.6H211.64ZM230.48 27.8V17.21H215.6V11.6H230.36V9.05H212.93V19.19H227.78V25.28H212.93V27.8H230.48ZM236.148 5.78V2.51H233.388V5.78H236.148ZM236.148 27.83V8.93H233.388V27.83H236.148ZM253.342 11.69V9.08H245.272V5.45H242.542V9.08H238.402V11.69H242.542V27.8H252.862V25.22H245.272V11.69H253.342ZM273.923 27.8V25.25H258.143V19.67H273.923V9.02H255.413V27.8H273.923ZM271.193 17.63H258.143V11.51H271.193V17.63Z" fill="white"/>
</svg>
