<svg width="266" height="25" viewBox="0 0 266 25" fill="none" xmlns="http://www.w3.org/2000/svg">
<mask id="path-1-outside-1" maskUnits="userSpaceOnUse" x="-1" y="-1" width="267" height="26" fill="black">
<rect fill="white" x="-1" y="-1" width="267" height="26"/>
<path d="M12.948 9.1V6.838H5.954V3.692H3.588V6.838H0V9.1H3.588V23.062H12.532V20.826H5.954V9.1H12.948Z"/>
<path d="M30.187 23.062V6.812H14.743V23.062H30.187ZM27.847 20.826H17.109V9.074H27.847V20.826Z"/>
<path d="M44.8894 9.1V6.838H37.8954V3.692H35.5294V6.838H31.9414V9.1H35.5294V23.062H44.4734V20.826H37.8954V9.1H44.8894Z"/>
<path d="M49.2844 3.978V1.144H46.8924V3.978H49.2844ZM49.2844 23.088V6.708H46.8924V23.088H49.2844Z"/>
<path d="M67.4883 22.984L58.6743 13.832L67.0723 6.734H63.9783L56.8803 12.714H54.3063V1.196H51.9403V23.114H54.3063V15.002H56.8283L64.4983 22.984H67.4883Z"/>
<path d="M84.1232 23.062V6.786H81.7832V20.826H71.8512V6.786H69.4852V23.062H84.1232Z"/>
<path d="M107.425 23.14V6.812H86.5731V23.14H88.9391V9.048H95.9331V23.14H98.0651V9.048H105.059V23.14H107.425Z"/>
<path d="M125.317 23.062V6.786H109.093V8.97H122.925V13.728H109.093V23.062H125.317ZM122.925 20.878H111.537V15.496H122.925V20.878Z"/>
<path d="M150.741 0H148.141L145.567 4.55L144.163 11.7L145.567 18.85L148.141 23.296H150.715L147.933 18.486L146.581 11.674L147.933 4.862L150.741 0Z"/>
<path d="M176.715 22.984V20.748H157.475V8.84H176.507V3.978H174.193V6.552H163.377V0.52H160.933V6.552H155.057V22.984H176.715Z"/>
<path d="M202.949 5.096V2.808H184.541V0.52H182.201V2.808H179.991V5.096H182.201V12.766H199.647V20.644H182.279V22.958H202.039V10.556H184.541V5.096H202.949Z"/>
<path d="M227.623 23.712V19.708H209.553V5.252H227.545V0.468H225.205V2.938H207.213V21.97H225.309V23.712H227.623Z"/>
<path d="M254.975 16.562V14.274H251.907V10.556H254.975V8.528H251.907V4.55H254.975V2.366H251.907V0.52H249.567V2.366H232.355V4.55H249.567V8.528H232.355V10.556H249.567V14.066H233.629V22.958H252.193V16.562H254.975ZM249.775 20.956H236.073V15.912H249.775V20.956Z"/>
<path d="M264.855 11.7L263.451 4.55L260.877 0H258.277L261.085 4.862L262.437 11.674L261.085 18.486L258.303 23.296H260.877L263.451 18.85L264.855 11.7Z"/>
</mask>
<path d="M12.948 9.1V6.838H5.954V3.692H3.588V6.838H0V9.1H3.588V23.062H12.532V20.826H5.954V9.1H12.948Z" fill="black"/>
<path d="M30.187 23.062V6.812H14.743V23.062H30.187ZM27.847 20.826H17.109V9.074H27.847V20.826Z" fill="black"/>
<path d="M44.8894 9.1V6.838H37.8954V3.692H35.5294V6.838H31.9414V9.1H35.5294V23.062H44.4734V20.826H37.8954V9.1H44.8894Z" fill="black"/>
<path d="M49.2844 3.978V1.144H46.8924V3.978H49.2844ZM49.2844 23.088V6.708H46.8924V23.088H49.2844Z" fill="black"/>
<path d="M67.4883 22.984L58.6743 13.832L67.0723 6.734H63.9783L56.8803 12.714H54.3063V1.196H51.9403V23.114H54.3063V15.002H56.8283L64.4983 22.984H67.4883Z" fill="black"/>
<path d="M84.1232 23.062V6.786H81.7832V20.826H71.8512V6.786H69.4852V23.062H84.1232Z" fill="black"/>
<path d="M107.425 23.14V6.812H86.5731V23.14H88.9391V9.048H95.9331V23.14H98.0651V9.048H105.059V23.14H107.425Z" fill="black"/>
<path d="M125.317 23.062V6.786H109.093V8.97H122.925V13.728H109.093V23.062H125.317ZM122.925 20.878H111.537V15.496H122.925V20.878Z" fill="black"/>
<path d="M150.741 0H148.141L145.567 4.55L144.163 11.7L145.567 18.85L148.141 23.296H150.715L147.933 18.486L146.581 11.674L147.933 4.862L150.741 0Z" fill="black"/>
<path d="M176.715 22.984V20.748H157.475V8.84H176.507V3.978H174.193V6.552H163.377V0.52H160.933V6.552H155.057V22.984H176.715Z" fill="black"/>
<path d="M202.949 5.096V2.808H184.541V0.52H182.201V2.808H179.991V5.096H182.201V12.766H199.647V20.644H182.279V22.958H202.039V10.556H184.541V5.096H202.949Z" fill="black"/>
<path d="M227.623 23.712V19.708H209.553V5.252H227.545V0.468H225.205V2.938H207.213V21.97H225.309V23.712H227.623Z" fill="black"/>
<path d="M254.975 16.562V14.274H251.907V10.556H254.975V8.528H251.907V4.55H254.975V2.366H251.907V0.52H249.567V2.366H232.355V4.55H249.567V8.528H232.355V10.556H249.567V14.066H233.629V22.958H252.193V16.562H254.975ZM249.775 20.956H236.073V15.912H249.775V20.956Z" fill="black"/>
<path d="M264.855 11.7L263.451 4.55L260.877 0H258.277L261.085 4.862L262.437 11.674L261.085 18.486L258.303 23.296H260.877L263.451 18.85L264.855 11.7Z" fill="black"/>
<path d="M12.948 9.1V6.838H5.954V3.692H3.588V6.838H0V9.1H3.588V23.062H12.532V20.826H5.954V9.1H12.948Z" stroke="white" stroke-width="2" mask="url(#path-1-outside-1)"/>
<path d="M30.187 23.062V6.812H14.743V23.062H30.187ZM27.847 20.826H17.109V9.074H27.847V20.826Z" stroke="white" stroke-width="2" mask="url(#path-1-outside-1)"/>
<path d="M44.8894 9.1V6.838H37.8954V3.692H35.5294V6.838H31.9414V9.1H35.5294V23.062H44.4734V20.826H37.8954V9.1H44.8894Z" stroke="white" stroke-width="2" mask="url(#path-1-outside-1)"/>
<path d="M49.2844 3.978V1.144H46.8924V3.978H49.2844ZM49.2844 23.088V6.708H46.8924V23.088H49.2844Z" stroke="white" stroke-width="2" mask="url(#path-1-outside-1)"/>
<path d="M67.4883 22.984L58.6743 13.832L67.0723 6.734H63.9783L56.8803 12.714H54.3063V1.196H51.9403V23.114H54.3063V15.002H56.8283L64.4983 22.984H67.4883Z" stroke="white" stroke-width="2" mask="url(#path-1-outside-1)"/>
<path d="M84.1232 23.062V6.786H81.7832V20.826H71.8512V6.786H69.4852V23.062H84.1232Z" stroke="white" stroke-width="2" mask="url(#path-1-outside-1)"/>
<path d="M107.425 23.14V6.812H86.5731V23.14H88.9391V9.048H95.9331V23.14H98.0651V9.048H105.059V23.14H107.425Z" stroke="white" stroke-width="2" mask="url(#path-1-outside-1)"/>
<path d="M125.317 23.062V6.786H109.093V8.97H122.925V13.728H109.093V23.062H125.317ZM122.925 20.878H111.537V15.496H122.925V20.878Z" stroke="white" stroke-width="2" mask="url(#path-1-outside-1)"/>
<path d="M150.741 0H148.141L145.567 4.55L144.163 11.7L145.567 18.85L148.141 23.296H150.715L147.933 18.486L146.581 11.674L147.933 4.862L150.741 0Z" stroke="white" stroke-width="2" mask="url(#path-1-outside-1)"/>
<path d="M176.715 22.984V20.748H157.475V8.84H176.507V3.978H174.193V6.552H163.377V0.52H160.933V6.552H155.057V22.984H176.715Z" stroke="white" stroke-width="2" mask="url(#path-1-outside-1)"/>
<path d="M202.949 5.096V2.808H184.541V0.52H182.201V2.808H179.991V5.096H182.201V12.766H199.647V20.644H182.279V22.958H202.039V10.556H184.541V5.096H202.949Z" stroke="white" stroke-width="2" mask="url(#path-1-outside-1)"/>
<path d="M227.623 23.712V19.708H209.553V5.252H227.545V0.468H225.205V2.938H207.213V21.97H225.309V23.712H227.623Z" stroke="white" stroke-width="2" mask="url(#path-1-outside-1)"/>
<path d="M254.975 16.562V14.274H251.907V10.556H254.975V8.528H251.907V4.55H254.975V2.366H251.907V0.52H249.567V2.366H232.355V4.55H249.567V8.528H232.355V10.556H249.567V14.066H233.629V22.958H252.193V16.562H254.975ZM249.775 20.956H236.073V15.912H249.775V20.956Z" stroke="white" stroke-width="2" mask="url(#path-1-outside-1)"/>
<path d="M264.855 11.7L263.451 4.55L260.877 0H258.277L261.085 4.862L262.437 11.674L261.085 18.486L258.303 23.296H260.877L263.451 18.85L264.855 11.7Z" stroke="white" stroke-width="2" mask="url(#path-1-outside-1)"/>
</svg>
