<svg width="183" height="20" viewBox="0 0 183 20" fill="none" xmlns="http://www.w3.org/2000/svg">
<path d="M10.34 7.46V5.72H4.96V3.3H3.14V5.72H0.38V7.46H3.14V18.2H10.02V16.48H4.96V7.46H10.34ZM23.6008 18.2V5.7H11.7208V18.2H23.6008ZM21.8008 16.48H13.5408V7.44H21.8008V16.48ZM34.9103 7.46V5.72H29.5303V3.3H27.7103V5.72H24.9503V7.46H27.7103V18.2H34.5903V16.48H29.5303V7.46H34.9103ZM38.2911 3.52V1.34H36.4511V3.52H38.2911ZM38.2911 18.22V5.62H36.4511V18.22H38.2911ZM52.2941 18.14L45.5141 11.1L51.9741 5.64H49.5941L44.1341 10.24H42.1541V1.38H40.3341V18.24H42.1541V12H44.0941L49.9941 18.14H52.2941ZM65.0902 18.2V5.68H63.2902V16.48H55.6502V5.68H53.8302V18.2H65.0902ZM83.0147 18.26V5.7H66.9747V18.26H68.7947V7.42H74.1747V18.26H75.8147V7.42H81.1947V18.26H83.0147ZM96.7775 18.2V5.68H84.2975V7.36H94.9375V11.02H84.2975V18.2H96.7775ZM94.9375 16.52H86.1775V12.38H94.9375V16.52ZM101.695 2.6V0.279999H99.1148V2.62H100.515L99.6748 4.5H100.935L101.695 2.6ZM130.255 18.2V11.14H120.335V7.4H130.175V5.7H118.555V12.46H128.455V16.52H118.555V18.2H130.255ZM141.093 19.4V18.58H131.113V19.4H141.093ZM153.653 18.2V11.14H143.733V7.4H153.573V5.7H141.953V12.46H151.853V16.52H141.953V18.2H153.653ZM157.432 3.52V1.34H155.592V3.52H157.432ZM157.432 18.22V5.62H155.592V18.22H157.432ZM168.895 7.46V5.72H163.515V3.3H161.695V5.72H158.935V7.46H161.695V18.2H168.575V16.48H163.515V7.46H168.895ZM182.615 18.2V16.5H172.095V12.78H182.615V5.68H170.275V18.2H182.615ZM180.795 11.42H172.095V7.34H180.795V11.42Z" fill="white"/>
</svg>
