<svg width="326" height="24" viewBox="0 0 326 24" fill="none" xmlns="http://www.w3.org/2000/svg">
<path d="M2.648 20.392V0.303999H0.344V20.392H2.648ZM7.54306 20.512V0.207999H5.33506V20.512H7.54306ZM12.3946 20.512V0.207999H10.1866V20.512H12.3946ZM28.3582 20.44V5.416H26.1982V18.376H17.0302V5.416H14.8462V20.44H28.3582ZM44.5636 20.44V11.968H32.6596V7.48H44.4676V5.44H30.5236V13.552H42.4036V18.424H30.5236V20.44H44.5636ZM58.0018 7.552V5.464H51.5458V2.56H49.3618V5.464H46.0498V7.552H49.3618V20.44H57.6178V18.376H51.5458V7.552H58.0018ZM69.9307 7.528V5.44H63.0427L59.6827 8.152V20.512H61.8667V8.92L63.6427 7.528H69.9307ZM86.3518 20.44V5.416H71.3758V7.432H84.1438V11.824H71.3758V20.44H86.3518ZM84.1438 18.424H73.6318V13.456H84.1438V18.424ZM99.8846 7.552V5.464H93.4286V2.56H91.2446V5.464H87.9326V7.552H91.2446V20.44H99.5006V18.376H93.4286V7.552H99.8846ZM115.798 20.44V5.44H101.542V20.44H115.798ZM113.638 18.376H103.726V7.528H113.638V18.376ZM128.337 7.528V5.44H121.449L118.089 8.152V20.512H120.273V8.92L122.049 7.528H128.337ZM141.542 0.256H139.502L129.566 20.392H131.63L141.542 0.256ZM162.862 20.368V0.327999H160.606V18.112H154.318V0.327999H152.182V18.112H145.894V0.327999H143.638V20.368H162.862ZM180.053 20.44V18.4H167.429V13.936H180.053V5.416H165.245V20.44H180.053ZM177.869 12.304H167.429V7.408H177.869V12.304ZM196.349 20.44V5.44H184.421V0.303999H182.237V20.44H196.349ZM194.213 18.376H184.421V7.528H194.213V18.376ZM209.468 21.88V20.896H197.492V21.88H209.468ZM224.636 20.44V0.303999H222.476V5.44H210.596V20.44H224.636ZM222.476 18.376H212.756V7.528H222.476V18.376ZM241.693 20.44V18.4H229.069V13.936H241.693V5.416H226.885V20.44H241.693ZM239.509 12.304H229.069V7.408H239.509V12.304ZM257.798 20.44V11.968H245.894V7.48H257.702V5.44H243.758V13.552H255.638V18.424H243.758V20.44H257.798ZM262.332 2.824V0.207999H260.124V2.824H262.332ZM262.332 20.464V5.344H260.124V20.464H262.332ZM280.72 6.592V4.36L278.776 5.464H264.784V16.048H276.952V21.04H266.968V18.808H264.808V23.08H279.112V7.528L280.72 6.592ZM276.952 14.2H266.968V7.456H276.952V14.2ZM296.469 20.512V5.44H282.573V20.512H284.757V7.528H294.309V20.512H296.469ZM313.529 20.44V18.4H300.905V13.936H313.529V5.416H298.721V20.44H313.529ZM311.345 12.304H300.905V7.408H311.345V12.304ZM325.962 7.528V5.44H319.074L315.714 8.152V20.512H317.898V8.92L319.674 7.528H325.962Z" fill="black"/>
</svg>
